# xmcd
#
# Track frame offsets:
#	182
#	23755
#	34710
#	51520
#	71267
#	88160
#	109690
#	132770
#	151095
#	173425
#	192037
#	202397
#	218587
#	233620
#	246795
#	263072
#	286362
#	306195
#
# Disc length: 4344 seconds
#
# Revision: 1
# Processed by: cddbd v1.5.2PL0 Copyright (c) Steve Scherf et al.
# Submitted via: audiograbber 1.83.01
#
DISCID=f110f612
DTITLE=Bob Young and Micky Moody - The Nearest Hits Album
DYEAR=1995
DGENRE=
TTITLE0=You Make It Roll
TTITLE1=Don't Want To Lose You Now
TTITLE2=Someone Else's Door
TTITLE3=Chicago Blues
TTITLE4=Leave Well Alone
TTITLE5=Four Until Late
TTITLE6=Noon Time Lover
TTITLE7=Sunrise To Sunset
TTITLE8=Too Young To Feel This Way
TTITLE9=Playing Your Game
TTITLE10=San Francisco Bay Blues
TTITLE11=How Can I Help You Tonight
TTITLE12=All The Good Friends
TTITLE13=These Eyes
TTITLE14=Don't Do That
TTITLE15=Trying Not To Notice
TTITLE16=Svensk Blues
TTITLE17=Mean Girl
EXTD=
EXTT0=
EXTT1=
EXTT2=
EXTT3=
EXTT4=
EXTT5=
EXTT6=
EXTT7=
EXTT8=
EXTT9=
EXTT10=
EXTT11=
EXTT12=
EXTT13=
EXTT14=
EXTT15=
EXTT16=
EXTT17=
PLAYORDER=
